<svg width="20" height="20" viewBox="0 0 20 20" fill="none" xmlns="http://www.w3.org/2000/svg">
<path d="M2.4246 10.9765C2.13996 10.3572 2.13996 9.6428 2.4246 9.02354C3.74219 6.15703 6.63884 4.16667 10.0004 4.16667C13.3619 4.16667 16.2586 6.15703 17.5761 9.02354C17.8608 9.6428 17.8608 10.3572 17.5761 10.9765C16.2586 13.843 13.3619 15.8333 10.0004 15.8333C6.63884 15.8333 3.74219 13.843 2.4246 10.9765Z" stroke="#5F6D7E" stroke-width="1.5"/>
<path d="M12.5004 10C12.5004 11.3807 11.3811 12.5 10.0004 12.5C8.61966 12.5 7.50037 11.3807 7.50037 10C7.50037 8.61929 8.61966 7.50001 10.0004 7.50001C11.3811 7.50001 12.5004 8.61929 12.5004 10Z" stroke="#5F6D7E" stroke-width="1.5"/>
</svg>
