<svg width="20" height="20" viewBox="0 0 20 20" fill="none" xmlns="http://www.w3.org/2000/svg">
<path d="M2.42454 10.9765C2.1399 10.3572 2.1399 9.64282 2.42454 9.02355C3.74213 6.15704 6.63878 4.16669 10.0003 4.16669C13.3618 4.16669 16.2585 6.15704 17.5761 9.02356C17.8607 9.64282 17.8607 10.3572 17.5761 10.9765C16.2585 13.843 13.3618 15.8334 10.0003 15.8334C6.63878 15.8334 3.74213 13.843 2.42454 10.9765Z" stroke="#5F6D7E" stroke-width="1.5"/>
<path d="M12.5003 10C12.5003 11.3807 11.381 12.5 10.0003 12.5C8.6196 12.5 7.50031 11.3807 7.50031 10C7.50031 8.61931 8.6196 7.50002 10.0003 7.50002C11.381 7.50002 12.5003 8.61931 12.5003 10Z" stroke="#5F6D7E" stroke-width="1.5"/>
</svg>
